<svg xmlns="http://www.w3.org/2000/svg" width="32" height="32" viewBox="0 0 32 32" fill="none">
  <defs>
    <filter id="starGlow" x="-50%" y="-50%" width="200%" height="200%">
      <feGaussianBlur stdDeviation="1.5" result="coloredBlur"/>
      <feMerge>
        <feMergeNode in="coloredBlur"/>
        <feMergeNode in="SourceGraphic"/>
      </feMerge>
    </filter>
  </defs>
  <!-- Wand stick -->
  <path d="M12 12L27 27" stroke="#4a154b" stroke-width="4.5" stroke-linecap="round" />
  <path d="M12 12L27 27" stroke="#e0e7ff" stroke-width="2.5" stroke-linecap="round" />
  <path d="M18 18L21 21" stroke="#f472b6" stroke-width="3" />
  <path d="M23 23L26 26" stroke="#c084fc" stroke-width="3" />

  <!-- Magic Star Tip at (6, 6) -->
  <g transform="translate(6, 6)" filter="url(#starGlow)">
    <path d="M0 -6 C0.5 -1.5, 1.5 -0.5, 6 0 C1.5 0.5, 0.5 1.5, 0 6 C-0.5 1.5, -1.5 0.5, -6 0 C-1.5 -0.5, -0.5 -1.5, 0 -6 Z" fill="#fde047" stroke="#ca8a04" stroke-width="0.8"/>
    <circle cx="0" cy="0" r="2" fill="#ffffff" />
  </g>

  <!-- Tiny floating sparkles -->
  <circle cx="16" cy="5" r="1.5" fill="#f472b6" />
  <circle cx="4" cy="16" r="1.2" fill="#38bdf8" />
  <circle cx="14" cy="9" r="1" fill="#fef08a" />
</svg>
